Coordinates
version=1
nRows=27
nColumns=38
inDegrees=no

Units are S.I. units (second, meters, Newtons, ...)
If the header above contains a line with 'inDegrees', this indicates whether rotational values are in degrees (yes) or radians (no).

endheader
time	pelvis_tilt	pelvis_list	pelvis_rotation	pelvis_tx	pelvis_ty	pelvis_tz	hip_flexion_r	hip_adduction_r	hip_rotation_r	knee_angle_r	ankle_angle_r	subtalar_angle_r	mtp_angle_r	hip_flexion_l	hip_adduction_l	hip_rotation_l	knee_angle_l	ankle_angle_l	subtalar_angle_l	mtp_angle_l	lumbar_extension	lumbar_bending	lumbar_rotation	arm_flex_r	arm_add_r	arm_rot_r	elbow_flex_r	pro_sup_r	wrist_flex_r	wrist_dev_r	arm_flex_l	arm_add_l	arm_rot_l	elbow_flex_l	pro_sup_l	wrist_flex_l	wrist_dev_l
1.94	0.161781	-0.0272061	0.00675183	0.749479	0.971904	-0.295847	-0.160858	0.0961013	-0.0170642	-0.648483	0.439858	-0.0149002	-0.00521914	0.421707	0.00340692	-0.00810374	-1.67369	-0.135448	0.00093536	-0.0184272	-0.442346	0.0263659	0.115378	-0.259489	-0.437381	-0.203559	1.74094	1.291	-0.0425677	-0.0936555	-0.365555	-0.292361	0.0305923	1.5039	1.77084	0.0999999	-0.0920333
1.95	0.150113	-0.00526166	0.00537555	0.750876	0.975412	-0.296196	-0.221253	0.068936	-0.0201295	-0.586875	0.386756	-0.0149002	-0.00521914	0.465506	0.0279828	-0.0214439	-1.60086	-0.115913	0.00093536	-0.0184272	-0.424652	0.000445348	0.120754	-0.253719	-0.439342	-0.216139	1.76437	1.29245	-0.0425677	-0.0936555	-0.422721	-0.295334	-0.00511367	1.52779	1.75412	0.0999999	-0.0920333
1.96	0.137754	0.0162977	0.00250927	0.752766	0.979336	-0.296477	-0.278699	0.0413352	-0.0259976	-0.525016	0.316444	-0.0149002	-0.00521914	0.500679	0.0494239	-0.038955	-1.51168	-0.0974863	0.00093536	-0.0184272	-0.405641	-0.0257404	0.126658	-0.252597	-0.439981	-0.228974	1.7895	1.29446	-0.0425677	-0.0936555	-0.480324	-0.298275	-0.0401704	1.55709	1.73657	0.0999999	-0.0920333
1.97	0.125134	0.0362135	-0.00154449	0.754999	0.983527	-0.296696	-0.331767	0.014702	-0.034418	-0.466183	0.2316	-0.0149002	-0.00521914	0.526496	0.0672256	-0.0582801	-1.40655	-0.0799901	0.00093536	-0.0184272	-0.386073	-0.0506459	0.133149	-0.255027	-0.439867	-0.241006	1.81511	1.29749	-0.0425677	-0.0936555	-0.536604	-0.300517	-0.0737441	1.58891	1.71932	0.0999999	-0.0920333
1.98	0.112705	0.0532963	-0.00638737	0.757407	0.987809	-0.296864	-0.379169	-0.00961974	-0.0447372	-0.413694	0.135897	-0.0149002	-0.00521914	0.542579	0.0811718	-0.0767617	-1.28656	-0.0630818	0.00093536	-0.0184272	-0.366724	-0.0727545	0.140219	-0.259965	-0.439409	-0.251562	1.8401	1.30203	-0.0425677	-0.0936555	-0.589794	-0.30161	-0.105012	1.62065	1.70313	0.0999999	-0.0920333
1.99	0.100903	0.0664778	-0.0116451	0.759833	0.99198	-0.29699	-0.419807	-0.0304182	-0.0559264	-0.370771	0.0337345	-0.0149002	-0.00521914	0.549009	0.0911782	-0.09186	-1.15378	-0.0462811	0.00093536	-0.0184272	-0.348313	-0.0906936	0.147902	-0.266566	-0.438839	-0.260421	1.86355	1.30854	-0.0425677	-0.0936555	-0.63822	-0.301367	-0.133219	1.65022	1.68842	0.0999999	-0.0920333
2	0.0901414	0.0749103	-0.0170466	0.762151	0.99585	-0.297077	-0.452838	-0.0467391	-0.0667514	-0.340366	-0.0701112	-0.0149002	-0.00521914	0.546398	0.0971942	-0.101572	-1.01162	-0.0290938	0.00093536	-0.0184272	-0.33148	-0.103386	0.156286	-0.274232	-0.438235	-0.267733	1.88482	1.31723	-0.0425677	-0.0936555	-0.680427	-0.29986	-0.157759	1.67613	1.67539	0.0999999	-0.0920333
2.01	0.0808298	0.0781256	-0.0224352	0.764269	0.999251	-0.297122	-0.477767	-0.0580527	-0.0760428	-0.32499	-0.170844	-0.0149002	-0.00521914	0.535892	0.0992298	-0.104776	-0.864933	-0.0111965	0.00093536	-0.0184272	-0.316832	-0.110245	0.165375	-0.282526	-0.437567	-0.273802	1.9035	1.32803	-0.0425677	-0.0936555	-0.71532	-0.297343	-0.178309	1.69762	1.66414	0.0999999	-0.0920333
2.02	0.0734358	0.076241	-0.0277099	0.766119	1.00205	-0.297116	-0.494568	-0.0644259	-0.0829887	-0.326572	-0.263958	-0.0149002	-0.00521914	0.51905	0.0975358	-0.101403	-0.719922	0.00739307	0.00093536	-0.0184272	-0.305076	-0.111412	0.174765	-0.290938	-0.436768	-0.278712	1.91935	1.34048	-0.0425677	-0.0936555	-0.742392	-0.294129	-0.195048	1.71473	1.65471	0.0999999	-0.0920333
2.03	0.0684252	0.0699937	-0.0327692	0.767647	1.00418	-0.29707	-0.503598	-0.0665721	-0.087272	-0.34632	-0.34561	-0.0149002	-0.00521914	0.497746	0.0927491	-0.0923586	-0.583632	0.0261923	0.00093536	-0.0184272	-0.296907	-0.107741	0.183741	-0.298995	-0.43575	-0.282382	1.93226	1.35382	-0.0425677	-0.0936555	-0.761566	-0.290612	-0.208412	1.72802	1.64716	0.0999999	-0.0920333
2.04	0.0662531	0.0607587	-0.0374235	0.768801	1.00559	-0.297017	-0.505554	-0.0658221	-0.0891611	-0.384642	-0.412908	-0.0149002	-0.00521914	0.473919	0.0860527	-0.0792143	-0.463185	0.0442564	0.00093536	-0.0184272	-0.292991	-0.100783	0.191196	-0.306205	-0.434422	-0.284483	1.94215	1.36707	-0.0425677	-0.0936555	-0.773173	-0.287226	-0.219043	1.73842	1.64148	0.0999999	-0.0920333
2.05	0.067198	0.0503168	-0.0413756	0.76957	1.00633	-0.297015	-0.501236	-0.0639202	-0.0894166	-0.441065	-0.464254	-0.0149002	-0.00521914	0.449398	0.0790731	-0.0638104	-0.364808	0.0602577	0.00093536	-0.0184272	-0.293732	-0.0924385	0.196002	-0.312338	-0.432662	-0.28478	1.94898	1.37934	-0.0425677	-0.0936555	-0.777616	-0.284548	-0.227363	1.74686	1.63755	0.0999999	-0.0920333
2.06	0.0712575	0.0405784	-0.0442214	0.769938	1.00641	-0.297141	-0.491376	-0.062756	-0.0891743	-0.514225	-0.499516	-0.0149002	-0.00521914	0.425714	0.0736554	-0.047915	-0.293002	0.072725	0.00093536	-0.0184272	-0.299143	-0.0846437	0.197198	-0.31749	-0.430309	-0.283267	1.95271	1.38991	-0.0425677	-0.0936555	-0.775229	-0.283276	-0.233442	1.75403	1.63508	0.0999999	-0.0920333
2.07	0.0781465	0.033318	-0.0454698	0.769887	1.00581	-0.297468	-0.476584	-0.0640801	-0.0897877	-0.601919	-0.519914	-0.0149002	-0.00521914	0.404004	0.0715827	-0.0329984	-0.250121	0.0804758	0.00093536	-0.0184272	-0.308877	-0.0791318	0.193948	-0.321905	-0.427199	-0.280041	1.95324	1.39834	-0.0425677	-0.0936555	-0.766361	-0.284062	-0.237172	1.76036	1.63367	0.0999999	-0.0920333
2.08	0.087206	0.0297983	-0.044659	0.769418	1.00448	-0.298053	-0.45719	-0.0691596	-0.092461	-0.701181	-0.527711	-0.0149002	-0.00521914	0.385122	0.0741602	-0.0200988	-0.236344	0.0831176	0.00093536	-0.0184272	-0.322116	-0.0770365	0.185896	-0.326107	-0.423148	-0.275529	1.95044	1.40441	-0.0425677	-0.0936555	-0.751166	-0.28751	-0.2381	1.76584	1.63286	0.0999999	-0.0920333
2.09	0.0974845	0.0305851	-0.0414616	0.768552	1.00233	-0.298921	-0.433192	-0.0785475	-0.0978998	-0.80852	-0.525592	-0.0149002	-0.00521914	0.369744	0.0819673	-0.00972571	-0.249992	0.0815391	0.00093536	-0.0184272	-0.337624	-0.0787508	0.173223	-0.330769	-0.417982	-0.270414	1.94412	1.40816	-0.0425677	-0.0936555	-0.729604	-0.294056	-0.235571	1.77	1.63221	0.0999999	-0.0920333
2.1	0.107914	0.0355959	-0.0357677	0.767327	0.999269	-0.300043	-0.404372	-0.0920131	-0.106078	-0.920258	-0.515946	-0.0149002	-0.00521914	0.358303	0.0948403	-0.00183341	-0.287965	0.0781693	0.00093536	-0.0184272	-0.35406	-0.0840675	0.156395	-0.336335	-0.411586	-0.265262	1.93395	1.40975	-0.0425677	-0.0936555	-0.701698	-0.303755	-0.229116	1.7722	1.63141	0.0999999	-0.0920333
2.11	0.117429	0.0441378	-0.0277946	0.765762	0.995353	-0.301362	-0.370321	-0.108564	-0.116087	-1.03282	-0.500454	-0.0149002	-0.00521914	0.350891	0.11191	0.00409297	-0.346018	0.0766802	0.00093536	-0.0184272	-0.370077	-0.0922567	0.136292	-0.343082	-0.403887	-0.260574	1.91952	1.40955	-0.0425677	-0.0936555	-0.667427	-0.316339	-0.218414	1.77159	1.63038	0.0999999	-0.0920333
2.12	0.125176	0.0551177	-0.0181194	0.763931	0.990728	-0.30277	-0.330594	-0.126666	-0.126278	-1.14296	-0.480011	-0.0149002	-0.00521914	0.346998	0.131836	0.00884342	-0.418903	0.0812014	0.00093536	-0.0184272	-0.384558	-0.102346	0.114041	-0.351013	-0.394871	-0.256621	1.90036	1.40803	-0.0425677	-0.0936555	-0.626855	-0.331216	-0.203447	1.76736	1.62936	0.0999999	-0.0920333
2.13	0.130777	0.0673742	-0.00762424	0.761921	0.985687	-0.304119	-0.284965	-0.144606	-0.134648	-1.24791	-0.45492	-0.0149002	-0.00521914	0.345241	0.153132	0.0132286	-0.500535	0.0952885	0.00093536	-0.0184272	-0.396884	-0.113494	0.0906078	-0.359654	-0.384629	-0.253106	1.87605	1.4057	-0.0425677	-0.0936555	-0.580448	-0.347411	-0.184831	1.75904	1.62891	0.0999999	-0.0920333
2.14	0.134249	0.079806	0.00256888	0.759782	0.980556	-0.305247	-0.233539	-0.160747	-0.139225	-1.34538	-0.42534	-0.0149002	-0.00521914	0.343384	0.174323	0.0178571	-0.584306	0.120962	0.00093536	-0.0184272	-0.406925	-0.125031	0.0669481	-0.368409	-0.373316	-0.249461	1.84636	1.40302	-0.0425677	-0.0936555	-0.528917	-0.363798	-0.163512	1.74655	1.6298	0.0999999	-0.0920333
2.15	0.135989	0.0914631	0.0112572	0.757508	0.975598	-0.306019	-0.176825	-0.173755	-0.138501	-1.43346	-0.391647	-0.0149002	-0.00521914	0.3386	0.19405	0.0230398	-0.66362	0.158209	0.00093536	-0.0184272	-0.414919	-0.136449	0.0440158	-0.376829	-0.361139	-0.245061	1.81149	1.40037	-0.0425677	-0.0936555	-0.473189	-0.379267	-0.140589	1.73029	1.63281	0.0999999	-0.0920333
2.16	0.136643	0.101585	0.017358	0.755092	0.971042	-0.30636	-0.115801	-0.182731	-0.131779	-1.51052	-0.354625	-0.0149002	-0.00521914	0.327893	0.211149	0.0288296	-0.732539	0.205042	0.00093536	-0.0184272	-0.421362	-0.14731	0.022678	-0.384784	-0.348353	-0.239383	1.77221	1.39797	-0.0425677	-0.0936555	-0.414455	-0.392825	-0.117215	1.71117	1.63856	0.0999999	-0.0920333
2.17	0.136991	0.109584	0.0201242	0.752589	0.967152	-0.306265	-0.0518577	-0.187233	-0.119379	-1.57518	-0.315448	-0.0149002	-0.00521914	0.308594	0.224684	0.035147	-0.786366	0.257947	0.00093536	-0.0184272	-0.426823	-0.157136	0.00359466	-0.392555	-0.335249	-0.232162	1.72987	1.39585	-0.0425677	-0.0936555	-0.354192	-0.403663	-0.094553	1.69069	1.64725	0.0999999	-0.0920333
2.18	0.137756	0.114978	0.0193203	0.750118	0.964211	-0.305777	0.0133316	-0.187236	-0.102645	-1.62627	-0.275511	-0.0149002	-0.00521914	0.278791	0.233969	0.0419104	-0.822016	0.312508	0.00093536	-0.0184272	-0.431776	-0.165318	-0.0128801	-0.400817	-0.322128	-0.223515	1.68643	1.39386	-0.0425677	-0.0936555	-0.294122	-0.41118	-0.0737065	1.67082	1.65858	0.0999999	-0.0920333
2.19	0.139415	0.117363	0.0152807	0.747819	0.962446	-0.304989	0.0780012	-0.183016	-0.0837386	-1.66281	-0.236221	-0.0149002	-0.00521914	0.237598	0.238553	0.0491062	-0.838094	0.363966	0.00093536	-0.0184272	-0.43648	-0.17108	-0.0267463	-0.410541	-0.309259	-0.214005	1.6442	1.39174	-0.0425677	-0.0936555	-0.236088	-0.415007	-0.0556413	1.65375	1.67169	0.0999999	-0.0920333
2.2	0.142072	0.116409	0.0088419	0.745822	0.96195	-0.304042	0.140521	-0.175006	-0.0652503	-1.68408	-0.198801	-0.0149002	-0.00521914	0.18526	0.238184	0.0567435	-0.834754	0.407682	0.00093536	-0.0184272	-0.440894	-0.173533	-0.0383192	-0.422812	-0.296852	-0.204609	1.60566	1.3892	-0.0425677	-0.0936555	-0.181875	-0.415019	-0.0410783	1.64161	1.6854	0.0999999	-0.0920333
